<svg width="77" height="77" viewBox="0 0 77 77" fill="none" xmlns="http://www.w3.org/2000/svg">
<g id="Frame">
<path id="Vector" d="M32.9584 6.83325H44.0417C47.7084 6.83325 50.7284 9.6032 51.123 13.1648L56.7084 13.1666C60.6433 13.1666 63.8334 16.3566 63.8334 20.2916V36.9109C61.3963 35.8944 58.722 35.3333 55.9167 35.3333C44.5487 35.3333 35.3334 44.5486 35.3334 55.9166C35.3334 61.4472 37.5146 66.4682 41.0638 70.1666H20.2917C16.3567 70.1666 13.1667 66.9765 13.1667 63.0416V20.2916C13.1667 16.3566 16.3567 13.1666 20.2917 13.1666L25.877 13.1648C26.2717 9.6032 29.2915 6.83325 32.9584 6.83325ZM44.0417 11.5833H32.9584C31.6467 11.5833 30.5834 12.6466 30.5834 13.9583C30.5834 15.2699 31.6467 16.3333 32.9584 16.3333H44.0417C45.3533 16.3333 46.4167 15.2699 46.4167 13.9583C46.4167 12.6466 45.3533 11.5833 44.0417 11.5833ZM73.3334 55.9166C73.3334 65.5357 65.5358 73.3333 55.9167 73.3333C46.2976 73.3333 38.5 65.5357 38.5 55.9166C38.5 46.2975 46.2976 38.4999 55.9167 38.4999C65.5358 38.4999 73.3334 46.2975 73.3334 55.9166ZM66.5364 48.4635C65.918 47.8454 64.9154 47.8454 64.297 48.4635L52.75 60.0108L47.5364 54.7969C46.918 54.1787 45.9154 54.1787 45.297 54.7969C44.6788 55.4153 44.6788 56.4179 45.297 57.0363L51.6303 63.3697C52.2487 63.9878 53.2513 63.9878 53.8698 63.3697L66.5364 50.703C67.1545 50.0845 67.1545 49.082 66.5364 48.4635Z" fill="white"/>
</g>
</svg>
