<svg width="146" height="146" viewBox="0 0 146 146" fill="none" xmlns="http://www.w3.org/2000/svg">
<g id="Boxes_fill">
<path id="Subtract" fill-rule="evenodd" clip-rule="evenodd" d="M104.458 73H80.8833C79.8892 73 79.0833 73.8059 79.0833 74.8V127.75H132.033C133.027 127.75 133.833 126.944 133.833 125.95V74.8C133.833 73.8059 133.027 73 132.033 73H108.458V88.2083C108.458 89.3129 107.563 90.2083 106.458 90.2083C105.354 90.2083 104.458 89.3129 104.458 88.2083V73Z" fill="white"/>
<path id="Subtract_2" fill-rule="evenodd" clip-rule="evenodd" d="M43.625 73H20.05C19.0559 73 18.25 73.8059 18.25 74.8V125.95C18.25 126.944 19.0559 127.75 20.05 127.75H73V74.8C73 73.8059 72.1941 73 71.2 73H47.625V88.2083C47.625 89.3129 46.7296 90.2083 45.625 90.2083C44.5204 90.2083 43.625 89.3129 43.625 88.2083V73Z" fill="white"/>
<path id="Subtract_3" fill-rule="evenodd" clip-rule="evenodd" d="M43.625 12.1667H20.05C19.0559 12.1667 18.25 12.9726 18.25 13.9667V65.1167C18.25 66.1108 19.0559 66.9167 20.05 66.9167H71.2C72.1941 66.9167 73 66.1108 73 65.1167V13.9667C73 12.9726 72.1941 12.1667 71.2 12.1667H47.625V30.4167C47.625 31.5212 46.7296 32.4167 45.625 32.4167C44.5204 32.4167 43.625 31.5212 43.625 30.4167V12.1667Z" fill="white"/>
</g>
</svg>
