<svg width="88" height="88" viewBox="0 0 88 88" fill="none" xmlns="http://www.w3.org/2000/svg">
<g id="People Call / undefined / Glyph: undefined">
<path id="Vector" d="M30.25 37.5C38.258 37.5 44.75 31.0081 44.75 23C44.75 14.9919 38.258 8.5 30.25 8.5C22.2419 8.5 15.75 14.9919 15.75 23C15.75 31.0081 22.2419 37.5 30.25 37.5ZM62.875 37.5C68.8813 37.5 73.75 32.6311 73.75 26.625C73.75 20.6189 68.8813 15.75 62.875 15.75C56.8687 15.75 52 20.6189 52 26.625C52 32.6311 56.8687 37.5 62.875 37.5ZM16.6562 44.75C12.1517 44.75 8.5 48.4018 8.5 52.9062V53.8125C8.5 53.8125 8.5 70.125 30.25 70.125C52 70.125 52 53.8125 52 53.8125V52.9062C52 48.4018 48.3482 44.75 43.8438 44.75H16.6562ZM67.1974 48.3565L68.9211 43.9898C69.8002 41.7623 72.2587 40.6059 74.5334 41.3505L76.0961 41.8616C78.7213 42.7207 80.9007 44.7837 80.9891 47.5481C81.3487 58.8255 72.0154 75.0351 62.0924 80.3729C59.652 81.6858 56.7698 80.8173 54.7133 78.9548L53.4928 77.8491C51.7212 76.2444 51.4965 73.5387 52.9795 71.666L55.8791 68.004C56.9311 66.6754 58.6584 66.0809 60.3045 66.4804L64.9855 67.6165C68.9842 64.9702 71.1273 61.2499 71.4144 56.4558L68.0932 52.9613C66.9241 51.7317 66.5747 49.9341 67.1974 48.3565Z" fill="white"/>
</g>
</svg>
