<svg width="82" height="88" viewBox="0 0 82 88" fill="none" xmlns="http://www.w3.org/2000/svg">
<g id="Box Multiple Arrow Right / undefined / Glyph: undefined">
<path id="Vector" d="M53.5871 8.94687C50.5461 7.82305 47.2039 7.82305 44.1629 8.94687L28.551 14.7163C26.0602 15.6369 24.4062 18.0113 24.4062 20.6668V30.7921C27.3088 30.3281 30.3017 30.6119 33.0939 31.6438L48.7057 37.4134C50.5693 38.1021 52.135 39.3089 53.2638 40.835C54.7747 40.5309 56.3374 40.3714 57.9375 40.3714C63.8278 40.3714 69.2131 42.5326 73.3438 46.1054V20.6668C73.3438 18.0113 71.6897 15.6369 69.1989 14.7163L53.5871 8.94687ZM37.1634 26.6293C35.7442 26.1387 34.9916 24.5906 35.4821 23.1715C35.9725 21.7524 37.5208 20.9996 38.94 21.4901L48.577 24.8214C48.7691 24.8877 48.9779 24.8877 49.1697 24.8211L58.7778 21.4919C60.1966 21.0003 61.7452 21.7519 62.2368 23.1707C62.7283 24.5894 61.9768 26.1381 60.558 26.6297L50.9503 29.9589C49.6062 30.4246 48.1449 30.4251 46.8008 29.9605L37.1634 26.6293ZM47.4489 40.8136C48.1779 41.083 48.8351 41.4766 49.4003 41.9657C45.577 43.4526 42.2376 45.9089 39.6845 49.0326C38.9751 48.4272 37.9725 48.2032 37.0278 48.5309L27.1235 51.9627L17.1898 48.5291C15.7706 48.0383 14.2225 48.7912 13.732 50.2104C13.2415 51.6295 13.9942 53.1774 15.4134 53.6682L24.4059 56.7763V66.5598C24.4059 68.0613 25.6231 69.2786 27.1246 69.2786C28.6261 69.2786 29.8434 68.0613 29.8434 66.5598V56.7749L36.3271 54.5281C35.0714 57.4092 34.375 60.5902 34.375 63.9339C34.375 68.6431 35.7565 73.0294 38.1359 76.7098L31.8371 79.0378C28.7962 80.1616 25.4538 80.1616 22.4128 79.0378L6.80097 73.2683C4.31016 72.3479 2.65625 69.9731 2.65625 67.3178V46.7641C2.65625 44.1084 4.31016 41.734 6.80097 40.8136L22.4128 35.044C25.4538 33.9202 28.7962 33.9202 31.8371 35.044L47.4489 40.8136ZM77.875 63.9339C77.875 74.9452 68.9488 83.8714 57.9375 83.8714C46.9262 83.8714 38 74.9452 38 63.9339C38 52.9229 46.9262 43.9964 57.9375 43.9964C68.9488 43.9964 77.875 52.9229 77.875 63.9339ZM47.0625 62.1214C46.0616 62.1214 45.25 62.933 45.25 63.9339C45.25 64.9351 46.0616 65.7464 47.0625 65.7464H64.4368L58.4682 71.7149C57.7606 72.4225 57.7606 73.5702 58.4682 74.2782C59.1762 74.9858 60.3238 74.9858 61.0318 74.2782L70.0943 65.2157C70.8019 64.5077 70.8019 63.36 70.0943 62.6524L61.0318 53.5899C60.3238 52.882 59.1762 52.882 58.4682 53.5899C57.7606 54.2975 57.7606 55.4452 58.4682 56.1532L64.4368 62.1214H47.0625Z" fill="white"/>
</g>
</svg>
