<svg width="85" height="86" viewBox="0 0 85 86" fill="none" xmlns="http://www.w3.org/2000/svg">
<g id="Frame 3384447">
<rect x="0.5" y="0.5" width="84" height="85" stroke="black"/>
<ellipse id="Ellipse 65" cx="58.7061" cy="63.3072" rx="7.98" ry="8.075" stroke="white" stroke-width="4"/>
<ellipse id="Ellipse 66" cx="31.4061" cy="63.3072" rx="7.56" ry="8.075" stroke="white" stroke-width="4"/>
<path id="Vector 582" d="M15.9712 43.4029H39.2812V16.1321M39.2812 16.1321V23.9237H12.0862V60.8821C12.0862 61.9866 12.9816 62.8821 14.0862 62.8821H23.7412M39.2812 16.1321H54.8212L73.872 31.4152C74.1085 31.605 74.2462 31.8919 74.2462 32.1952V39.5071M62.5912 23.9237H58.7062V39.5071H74.2462M74.2462 39.5071V60.8821C74.2462 61.9866 73.3508 62.8821 72.2462 62.8821H66.4762M50.9362 62.8821H39.2812" stroke="white" stroke-width="4" stroke-linecap="round" stroke-linejoin="round"/>
</g>
</svg>
