<svg width="36" height="37" viewBox="0 0 36 37" fill="none" xmlns="http://www.w3.org/2000/svg">
<g id="Group">
<path id="Vector" d="M18 3.99141C22.8094 3.99141 23.3789 4.0125 25.2703 4.09687C27.0281 4.17422 27.9773 4.46953 28.6102 4.71563C29.4469 5.03906 30.0516 5.43281 30.6773 6.05859C31.3102 6.69141 31.6969 7.28906 32.0203 8.12578C32.2664 8.75859 32.5617 9.71484 32.6391 11.4656C32.7234 13.3641 32.7445 13.9336 32.7445 18.7359C32.7445 23.5453 32.7234 24.1148 32.6391 26.0063C32.5617 27.7641 32.2664 28.7133 32.0203 29.3461C31.6969 30.1828 31.3031 30.7875 30.6773 31.4133C30.0445 32.0461 29.4469 32.4328 28.6102 32.7562C27.9773 33.0023 27.0211 33.2977 25.2703 33.375C23.3719 33.4594 22.8023 33.4805 18 33.4805C13.1906 33.4805 12.6211 33.4594 10.7297 33.375C8.97188 33.2977 8.02266 33.0023 7.38984 32.7562C6.55313 32.4328 5.94844 32.0391 5.32266 31.4133C4.68984 30.7805 4.30312 30.1828 3.97969 29.3461C3.73359 28.7133 3.43828 27.757 3.36094 26.0063C3.27656 24.1078 3.25547 23.5383 3.25547 18.7359C3.25547 13.9266 3.27656 13.357 3.36094 11.4656C3.43828 9.70781 3.73359 8.75859 3.97969 8.12578C4.30312 7.28906 4.69688 6.68437 5.32266 6.05859C5.95547 5.42578 6.55313 5.03906 7.38984 4.71563C8.02266 4.46953 8.97891 4.17422 10.7297 4.09687C12.6211 4.0125 13.1906 3.99141 18 3.99141ZM18 0.75C13.1133 0.75 12.5016 0.771094 10.582 0.855469C8.66953 0.939844 7.35469 1.24922 6.21563 1.69219C5.02734 2.15625 4.02188 2.76797 3.02344 3.77344C2.01797 4.77187 1.40625 5.77734 0.942188 6.95859C0.499219 8.10469 0.189844 9.4125 0.105469 11.325C0.0210938 13.2516 0 13.8633 0 18.75C0 23.6367 0.0210938 24.2484 0.105469 26.168C0.189844 28.0805 0.499219 29.3953 0.942188 30.5344C1.40625 31.7227 2.01797 32.7281 3.02344 33.7266C4.02188 34.725 5.02734 35.3437 6.20859 35.8008C7.35469 36.2437 8.6625 36.5531 10.575 36.6375C12.4945 36.7219 13.1062 36.743 17.993 36.743C22.8797 36.743 23.4914 36.7219 25.4109 36.6375C27.3234 36.5531 28.6383 36.2437 29.7773 35.8008C30.9586 35.3437 31.9641 34.725 32.9625 33.7266C33.9609 32.7281 34.5797 31.7227 35.0367 30.5414C35.4797 29.3953 35.7891 28.0875 35.8734 26.175C35.9578 24.2555 35.9789 23.6437 35.9789 18.757C35.9789 13.8703 35.9578 13.2586 35.8734 11.3391C35.7891 9.42656 35.4797 8.11172 35.0367 6.97266C34.5938 5.77734 33.982 4.77187 32.9766 3.77344C31.9781 2.775 30.9727 2.15625 29.7914 1.69922C28.6453 1.25625 27.3375 0.946875 25.425 0.8625C23.4984 0.771094 22.8867 0.75 18 0.75Z" fill="white"/>
<path id="Vector_2" d="M18 9.50391C12.8953 9.50391 8.75391 13.6453 8.75391 18.75C8.75391 23.8547 12.8953 27.9961 18 27.9961C23.1047 27.9961 27.2461 23.8547 27.2461 18.75C27.2461 13.6453 23.1047 9.50391 18 9.50391ZM18 24.7477C14.6883 24.7477 12.0023 22.0617 12.0023 18.75C12.0023 15.4383 14.6883 12.7523 18 12.7523C21.3117 12.7523 23.9977 15.4383 23.9977 18.75C23.9977 22.0617 21.3117 24.7477 18 24.7477Z" fill="white"/>
<path id="Vector_3" d="M29.7703 9.13821C29.7703 10.3335 28.8 11.2968 27.6117 11.2968C26.4164 11.2968 25.4531 10.3265 25.4531 9.13821C25.4531 7.9429 26.4234 6.97961 27.6117 6.97961C28.8 6.97961 29.7703 7.94993 29.7703 9.13821Z" fill="white"/>
</g>
</svg>
