<svg width="36" height="37" viewBox="0 0 36 37" fill="none" xmlns="http://www.w3.org/2000/svg">
<g id="Group">
<path id="Vector" d="M33.3352 0.75H2.65781C1.18828 0.75 0 1.91016 0 3.34453V34.1484C0 35.5828 1.18828 36.75 2.65781 36.75H33.3352C34.8047 36.75 36 35.5828 36 34.1555V3.34453C36 1.91016 34.8047 0.75 33.3352 0.75ZM10.6805 31.4273H5.33672V14.243H10.6805V31.4273ZM8.00859 11.9016C6.29297 11.9016 4.90781 10.5164 4.90781 8.80781C4.90781 7.09922 6.29297 5.71406 8.00859 5.71406C9.71719 5.71406 11.1023 7.09922 11.1023 8.80781C11.1023 10.5094 9.71719 11.9016 8.00859 11.9016ZM30.6773 31.4273H25.3406V23.0742C25.3406 21.0844 25.3055 18.518 22.5633 18.518C19.7859 18.518 19.3641 20.6906 19.3641 22.9336V31.4273H14.0344V14.243H19.1531V16.5914H19.2234C19.9336 15.2414 21.6773 13.8141 24.2719 13.8141C29.6789 13.8141 30.6773 17.3719 30.6773 21.9984V31.4273Z" fill="white"/>
</g>
</svg>
