<svg width="24" height="24" viewBox="0 0 24 24" fill="none" xmlns="http://www.w3.org/2000/svg">
<path id="Vector" d="M24 18.9615C24 19.2596 23.9404 19.6571 23.8211 20.154C23.7019 20.6509 23.5826 21.0385 23.4634 21.3168C23.2248 21.8932 22.5292 22.4994 21.3764 23.1354C20.3031 23.7118 19.2497 24 18.2161 24C17.8981 24 17.6 23.9801 17.3217 23.9404C17.0236 23.9006 16.6957 23.8311 16.3379 23.7317C15.9801 23.6124 15.7118 23.523 15.5329 23.4634C15.354 23.4037 15.036 23.2944 14.5789 23.1354C14.1217 22.9565 13.8435 22.8472 13.7441 22.8075C12.6311 22.4099 11.6373 21.9429 10.7627 21.4062C9.33168 20.5118 7.83106 19.2795 6.26087 17.7093C4.71056 16.159 3.4882 14.6683 2.59379 13.2373C2.03727 12.3627 1.56025 11.3689 1.16273 10.2559C1.14286 10.1366 1.04348 9.85839 0.864596 9.42112C0.70559 8.96398 0.586335 8.64596 0.506832 8.46708C0.447205 8.2882 0.367702 8.01988 0.268323 7.66211C0.168944 7.30435 0.0993789 6.9764 0.0596273 6.67826C0.0198758 6.38012 0 6.08199 0 5.78385C0 4.73044 0.288199 3.67702 0.864596 2.6236C1.50062 1.47081 2.10683 0.775156 2.68323 0.536646C2.96149 0.417392 3.34907 0.298137 3.84596 0.178882C4.34286 0.0596278 4.74037 4.52623e-07 5.03851 4.52623e-07C5.19752 4.52623e-07 5.31677 0.0198762 5.39627 0.0596278C5.59503 0.119255 5.89317 0.546584 6.29068 1.34162C6.42981 1.56025 6.6087 1.86832 6.82733 2.26584C7.02609 2.66335 7.22484 3.02112 7.4236 3.33913C7.60248 3.67702 7.77143 3.98509 7.93043 4.26335C7.97019 4.30311 8.06957 4.44224 8.22857 4.68075C8.40745 4.91926 8.53665 5.12795 8.61615 5.30683C8.69565 5.46584 8.7354 5.62485 8.7354 5.78385C8.7354 6.00248 8.56646 6.28075 8.22857 6.61863C7.91056 6.9764 7.56273 7.29441 7.18509 7.57267C6.80745 7.85093 6.44969 8.14907 6.1118 8.46708C5.79379 8.78509 5.63478 9.04348 5.63478 9.24224C5.63478 9.36149 5.6646 9.49068 5.72422 9.62981C5.78385 9.78882 5.83354 9.90807 5.87329 9.98758C5.91304 10.0671 5.99255 10.2062 6.1118 10.405C6.23106 10.5839 6.29068 10.6932 6.29068 10.7329C7.16522 12.2832 8.15901 13.6149 9.27205 14.728C10.3851 15.841 11.7168 16.8248 13.2671 17.6795C13.287 17.6994 13.3963 17.7689 13.595 17.8882C13.7938 18.0075 13.9329 18.087 14.0124 18.1267C14.0919 18.1665 14.2012 18.2161 14.3404 18.2758C14.4994 18.3354 14.6286 18.3652 14.728 18.3652C14.9466 18.3652 15.2149 18.1963 15.5329 17.8584C15.8509 17.5404 16.1491 17.1925 16.4273 16.8149C16.7056 16.4373 17.0137 16.0795 17.3516 15.7416C17.6894 15.4236 17.9776 15.2646 18.2161 15.2646C18.3752 15.2646 18.5342 15.3043 18.6932 15.3839C18.8522 15.4634 19.0509 15.5826 19.2894 15.7416C19.5279 15.9205 19.677 16.0199 19.7366 16.0398C20.0149 16.2186 20.313 16.3975 20.6311 16.5764C20.9689 16.7553 21.3366 16.954 21.7342 17.1727C22.1317 17.3913 22.4298 17.5602 22.6286 17.6795C23.4236 18.077 23.8609 18.3851 23.9404 18.6037C23.9801 18.6832 24 18.8025 24 18.9615Z" fill="white"/>
</svg>
