<svg width="40" height="41" viewBox="0 0 40 41" fill="none" xmlns="http://www.w3.org/2000/svg">
<g id="icons8-whatsapp 1">
<path id="Vector" d="M20 2.34998C9.85437 2.34998 1.59997 10.6044 1.59997 20.75C1.59997 23.918 2.41837 27.0332 3.97037 29.782L1.62957 38.134C1.55277 38.4084 1.62717 38.7028 1.82557 38.9068C1.97837 39.0644 2.18637 39.15 2.39997 39.15C2.46397 39.15 2.52877 39.142 2.59197 39.1268L11.3088 36.9676C13.9704 38.3964 16.968 39.15 20 39.15C30.1456 39.15 38.4 30.8956 38.4 20.75C38.4 10.6044 30.1456 2.34998 20 2.34998ZM29.256 27.2428C28.8624 28.3324 26.9744 29.3268 26.0672 29.4604C25.2528 29.5796 24.2224 29.6308 23.0912 29.2756C22.4056 29.0596 21.5256 28.7732 20.3984 28.2924C15.66 26.2716 12.5656 21.5604 12.3288 21.2492C12.0928 20.938 10.4 18.7204 10.4 16.4252C10.4 14.13 11.62 13.0012 12.0536 12.534C12.4872 12.0668 12.9984 11.95 13.3136 11.95C13.6288 11.95 13.9432 11.954 14.2192 11.9668C14.5096 11.9812 14.8992 11.8572 15.2824 12.7676C15.676 13.702 16.6208 15.9972 16.7376 16.2316C16.856 16.4652 16.9344 16.738 16.7776 17.0492C16.6208 17.3604 16.5424 17.5548 16.3056 17.8276C16.0688 18.1004 15.8096 18.4356 15.5968 18.6452C15.36 18.878 15.1144 19.13 15.3896 19.5972C15.6648 20.0644 16.6128 21.5916 18.0176 22.8284C19.8216 24.4172 21.344 24.91 21.816 25.1436C22.288 25.3772 22.564 25.338 22.8392 25.0268C23.1144 24.7148 24.02 23.6644 24.3344 23.198C24.6488 22.7316 24.964 22.8084 25.3976 22.9644C25.8312 23.1196 28.1536 24.2476 28.6256 24.4812C29.0976 24.7148 29.4128 24.8316 29.5312 25.026C29.6496 25.2196 29.6496 26.154 29.256 27.2428Z" fill="white"/>
</g>
</svg>
